<svg xmlns="http://www.w3.org/2000/svg" x="0px" y="0px" width="22" height="22" viewBox="0 0 172 172" style=" fill:#000000;"><path d="M34.4,22.93333c-6.33533,0 -11.46667,5.13133 -11.46667,11.46667v103.2c0,6.33533 5.13133,11.46667 11.46667,11.46667h61.275c6.46788,13.52469 20.25176,22.93333 36.19167,22.93333c22.09712,0 40.13333,-18.03621 40.13333,-40.13333c0,-15.93991 -9.40864,-29.72379 -22.93333,-36.19167v-61.275c0,-6.33533 -5.13133,-11.46667 -11.46667,-11.46667zM34.4,34.4h103.2v22.93333h-103.2zM63.06667,74.53333c3.1648,0 5.73333,2.56853 5.73333,5.73333c0,3.1648 -2.56853,5.73333 -5.73333,5.73333c-3.1648,0 -5.73333,-2.56853 -5.73333,-5.73333c0,-3.1648 2.56853,-5.73333 5.73333,-5.73333zM86,74.53333c3.1648,0 5.73333,2.56853 5.73333,5.73333c0,3.1648 -2.56853,5.73333 -5.73333,5.73333c-3.1648,0 -5.73333,-2.56853 -5.73333,-5.73333c0,-3.1648 2.56853,-5.73333 5.73333,-5.73333zM108.93333,74.53333c3.1648,0 5.73333,2.56853 5.73333,5.73333c0,3.1648 -2.56853,5.73333 -5.73333,5.73333c-3.1648,0 -5.73333,-2.56853 -5.73333,-5.73333c0,-3.1648 2.56853,-5.73333 5.73333,-5.73333zM131.86667,74.53333c3.1648,0 5.73333,2.56853 5.73333,5.73333c0,3.1648 -2.56853,5.73333 -5.73333,5.73333c-3.1648,0 -5.73333,-2.56853 -5.73333,-5.73333c0,-3.1648 2.56853,-5.73333 5.73333,-5.73333zM40.13333,97.46667c3.1648,0 5.73333,2.56853 5.73333,5.73333c0,3.1648 -2.56853,5.73333 -5.73333,5.73333c-3.1648,0 -5.73333,-2.56853 -5.73333,-5.73333c0,-3.1648 2.56853,-5.73333 5.73333,-5.73333zM63.06667,97.46667c3.1648,0 5.73333,2.56853 5.73333,5.73333c0,3.1648 -2.56853,5.73333 -5.73333,5.73333c-3.1648,0 -5.73333,-2.56853 -5.73333,-5.73333c0,-3.1648 2.56853,-5.73333 5.73333,-5.73333zM86,97.46667c3.1648,0 5.73333,2.56853 5.73333,5.73333c0,3.1648 -2.56853,5.73333 -5.73333,5.73333c-3.1648,0 -5.73333,-2.56853 -5.73333,-5.73333c0,-3.1648 2.56853,-5.73333 5.73333,-5.73333zM131.86667,103.2c15.90007,0 28.66667,12.7666 28.66667,28.66667c0,15.90007 -12.7666,28.66667 -28.66667,28.66667c-15.90007,0 -28.66667,-12.7666 -28.66667,-28.66667c0,-15.90007 12.7666,-28.66667 28.66667,-28.66667zM131.77708,108.85495c-3.16203,0.04943 -5.68705,2.6496 -5.64375,5.81172v19.57396l10.23489,10.2349c1.43803,1.4977 3.57338,2.10098 5.58252,1.57719c2.00915,-0.52379 3.57817,-2.09281 4.10196,-4.10196c0.52379,-2.00915 -0.07949,-4.14449 -1.57719,-5.58252l-6.87552,-6.87552v-14.82604c0.02122,-1.54972 -0.58581,-3.04203 -1.68279,-4.1369c-1.09698,-1.09487 -2.59045,-1.69903 -4.14013,-1.67482zM40.13333,120.4c3.1648,0 5.73333,2.56853 5.73333,5.73333c0,3.1648 -2.56853,5.73333 -5.73333,5.73333c-3.1648,0 -5.73333,-2.56853 -5.73333,-5.73333c0,-3.1648 2.56853,-5.73333 5.73333,-5.73333zM63.06667,120.4c3.1648,0 5.73333,2.56853 5.73333,5.73333c0,3.1648 -2.56853,5.73333 -5.73333,5.73333c-3.1648,0 -5.73333,-2.56853 -5.73333,-5.73333c0,-3.1648 2.56853,-5.73333 5.73333,-5.73333zM86,120.4c3.1648,0 5.73333,2.56853 5.73333,5.73333c0,3.1648 -2.56853,5.73333 -5.73333,5.73333c-3.1648,0 -5.73333,-2.56853 -5.73333,-5.73333c0,-3.1648 2.56853,-5.73333 5.73333,-5.73333z"></path></svg>
