<svg xmlns="http://www.w3.org/2000/svg" x="0px" y="0px" width="24" height="24" viewBox="0 0 172 172" style="fill:#fff;">
  <path d="M68.8,17.2c-6.26689,0 -11.46667,5.19977 -11.46667,11.46667v17.2h11.46667v-17.2h28.66667v17.2h17.2v-17.2h11.46667v17.2h11.46667v-17.2c0,-6.26689 -5.19977,-11.46667 -11.46667,-11.46667zM40.13333,34.4c-9.43116,0 -17.2,7.76884 -17.2,17.2v80.26667c0,9.50013 7.69987,17.2 17.2,17.2h97.46667c6.33533,0 11.46667,-5.13133 11.46667,-11.46667v-68.8c0,-6.33533 -5.13133,-11.46667 -11.46667,-11.46667h-45.86667h-51.6c-3.23951,0 -5.73333,-2.49383 -5.73333,-5.73333c0,-3.23951 2.49383,-5.73333 5.73333,-5.73333h5.73333v-11.46667zM126.13333,91.73333c6.33533,0 11.46667,5.13133 11.46667,11.46667c0,6.33533 -5.13133,11.46667 -11.46667,11.46667c-6.33533,0 -11.46667,-5.13133 -11.46667,-11.46667c0,-6.33533 5.13133,-11.46667 11.46667,-11.46667z"></path>
</svg>