<svg xmlns="http://www.w3.org/2000/svg" x="0px" y="0px" width="18" height="18" viewBox="0 0 172 172" style=" fill:#fff;">
  <path d="M137.6,22.93333c-6.33287,0 -11.46667,5.1338 -11.46667,11.46667c0.0004,0.65308 0.0566,1.30493 0.16797,1.94844l-19.15964,15.96823c-1.26165,-0.46834 -2.5959,-0.71093 -3.94167,-0.71667c-2.24622,0.00226 -4.44231,0.66421 -6.31562,1.90365l-16.6513,-8.33125c-0.36681,-6.04729 -5.37468,-10.76576 -11.43308,-10.7724c-6.33287,0 -11.46667,5.1338 -11.46667,11.46667c0.00324,0.24665 0.01445,0.49313 0.03359,0.73906l-17.89427,11.92578c-1.57649,-0.78349 -3.31221,-1.19347 -5.07266,-1.19817c-6.33287,0 -11.46667,5.1338 -11.46667,11.46667c0,6.33287 5.1338,11.46667 11.46667,11.46667c6.33287,0 11.46667,-5.1338 11.46667,-11.46667c-0.00348,-0.24292 -0.01469,-0.48566 -0.03359,-0.72786l17.89427,-11.93698c1.57649,0.78349 3.31221,1.19348 5.07266,1.19818c2.24622,-0.00226 4.44231,-0.66421 6.31562,-1.90365l16.6513,8.33125c0.36681,6.04729 5.37468,10.76576 11.43308,10.77239c6.33287,0 11.46667,-5.1338 11.46667,-11.46667c-0.0004,-0.65308 -0.0566,-1.30493 -0.16797,-1.94844l19.15964,-15.96823c1.26165,0.46834 2.5959,0.71093 3.94167,0.71667c6.33287,0 11.46667,-5.1338 11.46667,-11.46667c0,-6.33287 -5.1338,-11.46667 -11.46667,-11.46667zM131.86667,68.8c-3.1648,0 -5.73333,2.56853 -5.73333,5.73333v74.53333h22.93333v-74.53333c0,-3.1648 -2.56853,-5.73333 -5.73333,-5.73333zM63.06667,80.26667c-3.1648,0 -5.73333,2.56853 -5.73333,5.73333v63.06667h22.93333v-63.06667c0,-3.1648 -2.56853,-5.73333 -5.73333,-5.73333zM97.46667,91.73333c-3.1648,0 -5.73333,2.56853 -5.73333,5.73333v51.6h22.93333v-51.6c0,-3.1648 -2.56853,-5.73333 -5.73333,-5.73333zM28.66667,103.2c-3.1648,0 -5.73333,2.56853 -5.73333,5.73333v40.13333h22.93333v-40.13333c0,-3.1648 -2.56853,-5.73333 -5.73333,-5.73333z"></path>
</svg>
