<svg class="mb-1 mr-1" xmlns="http://www.w3.org/2000/svg" x="0px" y="0px" width="18" height="18" viewBox="0 0 172 172" style=" fill:#fff;"><path d="M160.53333,69.85493v-29.7216c0,-6.33533 -5.13133,-11.46667 -11.46667,-11.46667h-126.13333c-6.33533,0 -11.46667,5.13133 -11.46667,11.46667v29.7216c6.66787,2.36787 11.46667,8.6688 11.46667,16.14507c0,7.47627 -4.7988,13.7772 -11.46667,16.14507v29.7216c0,6.33533 5.13133,11.46667 11.46667,11.46667h126.13333c6.33533,0 11.46667,-5.13133 11.46667,-11.46667v-29.7216c-6.66787,-2.36787 -11.46667,-8.6688 -11.46667,-16.14507c0,-7.47627 4.7988,-13.7772 11.46667,-16.14507zM120.4,137.6c-3.1648,0 -5.73333,-2.56853 -5.73333,-5.73333c0,-3.1648 2.56853,-5.73333 5.73333,-5.73333c3.1648,0 5.73333,2.56853 5.73333,5.73333c0,3.1648 -2.56853,5.73333 -5.73333,5.73333zM120.4,114.66667c-3.1648,0 -5.73333,-2.56853 -5.73333,-5.73333c0,-3.1648 2.56853,-5.73333 5.73333,-5.73333c3.1648,0 5.73333,2.56853 5.73333,5.73333c0,3.1648 -2.56853,5.73333 -5.73333,5.73333zM120.4,91.73333c-3.1648,0 -5.73333,-2.56853 -5.73333,-5.73333c0,-3.1648 2.56853,-5.73333 5.73333,-5.73333c3.1648,0 5.73333,2.56853 5.73333,5.73333c0,3.1648 -2.56853,5.73333 -5.73333,5.73333zM120.4,68.8c-3.1648,0 -5.73333,-2.56853 -5.73333,-5.73333c0,-3.1648 2.56853,-5.73333 5.73333,-5.73333c3.1648,0 5.73333,2.56853 5.73333,5.73333c0,3.1648 -2.56853,5.73333 -5.73333,5.73333zM120.4,45.86667c-3.1648,0 -5.73333,-2.56853 -5.73333,-5.73333c0,-3.1648 2.56853,-5.73333 5.73333,-5.73333c3.1648,0 5.73333,2.56853 5.73333,5.73333c0,3.1648 -2.56853,5.73333 -5.73333,5.73333z"></path></svg>
