<svg xmlns="http://www.w3.org/2000/svg" x="0px" y="0px" viewBox="0 0 172 172" style=" fill:#007bff;">
  <path d="M119.11,10.4275c-2.6875,0.04031 -5.65719,0.63156 -9.3525,1.6125c-10.60219,2.795 -71.595,19.6725 -71.595,19.6725c-0.1075,0.02688 -0.215,0.06719 -0.3225,0.1075c-9.66156,3.64156 -15.74875,7.06813 -19.4575,12.04c-3.68187,4.945 -4.50156,10.88438 -4.515,17.9525c0,0.04031 0,0.06719 0,0.1075v2.15c-0.04031,0.43 -0.1075,0.86 -0.1075,1.29v73.53c0,10.62906 8.72094,19.35 19.35,19.35h105.78c10.62906,0 19.35,-8.72094 19.35,-19.35v-74.0675c0,-10.965 -9.80937,-20.1025 -20.64,-20.1025h-103.2c-3.85656,0 -7.32344,1.10188 -10.2125,2.9025c2.49938,-3.07719 7.21594,-5.97969 15.8025,-9.245c0.09406,-0.04031 0.12094,-0.06719 0.215,-0.1075c0.38969,-0.1075 61.01969,-16.86406 71.2725,-19.565c3.41313,-0.90031 5.96625,-1.37062 7.74,-1.3975c1.77375,-0.02687 2.60688,0.24188 3.01,0.5375c0.40313,0.29563 0.73906,0.87344 1.075,2.2575c0.33594,1.38406 0.5375,3.49375 0.5375,6.235v11.5025h6.88v-11.5025c0,-2.98312 -0.18812,-5.50937 -0.7525,-7.8475c-0.56437,-2.33812 -1.66625,-4.63594 -3.655,-6.1275c-1.98875,-1.49156 -4.515,-1.97531 -7.2025,-1.935zM34.4,51.6h103.2c6.70531,0 13.76,6.665 13.76,13.2225v74.0675c0,6.90688 -5.56312,12.47 -12.47,12.47h-105.78c-6.92031,0 -12.47,-5.54969 -12.47,-12.47v-68.4775l0.1075,-5.6975c0.20156,-2.33812 1.3975,-5.67062 3.655,-8.2775c2.45906,-2.84875 5.81844,-4.8375 9.9975,-4.8375zM132.44,92.88c-4.75687,0 -8.6,3.84313 -8.6,8.6c0,4.75688 3.84313,8.6 8.6,8.6c4.74344,0 8.6,-3.84312 8.6,-8.6c0,-4.75687 -3.85656,-8.6 -8.6,-8.6z"></path>
</svg>