<svg xmlns="http://www.w3.org/2000/svg" x="0px" y="0px" width="18" height="18" viewBox="0 0 172 172" style=" fill:#fff;"><path d="M40.13333,22.93333c-9.43116,0 -17.2,7.76884 -17.2,17.2v91.73333c0,9.50013 7.69987,17.2 17.2,17.2h97.46667c6.33533,0 11.46667,-5.13133 11.46667,-11.46667v-80.26667c0,-6.33533 -5.13133,-11.46667 -11.46667,-11.46667h-45.86667h-51.6c-3.23951,0 -5.73333,-2.49383 -5.73333,-5.73333c0,-3.23951 2.49383,-5.73333 5.73333,-5.73333h86c2.06765,0.02924 3.99087,-1.05709 5.03322,-2.843c1.04236,-1.78592 1.04236,-3.99474 0,-5.78066c-1.04236,-1.78592 -2.96558,-2.87225 -5.03322,-2.843zM126.13333,86c6.33533,0 11.46667,5.13133 11.46667,11.46667c0,6.33533 -5.13133,11.46667 -11.46667,11.46667c-6.33533,0 -11.46667,-5.13133 -11.46667,-11.46667c0,-6.33533 5.13133,-11.46667 11.46667,-11.46667z"></path></svg>
